<svg width="93" height="90" viewBox="0 0 93 90" fill="none" xmlns="http://www.w3.org/2000/svg">
<path d="M46.0268 55.3333C46.0268 52.071 36.9326 49.4286 25.7143 49.4286M46.0268 55.3333C46.0268 58.5957 36.9326 61.2381 25.7143 61.2381C14.496 61.2381 5.40179 58.5957 5.40179 55.3333M46.0268 55.3333V69.9092C46.0268 73.272 36.9326 76 25.7143 76C14.496 76 5.40179 73.275 5.40179 69.9092V55.3333M46.0268 55.3333C57.1233 55.3333 66.3393 52.4193 66.3393 49.4286V19.9048M25.7143 49.4286C14.496 49.4286 5.40179 52.071 5.40179 55.3333M25.7143 49.4286C12.8942 49.4286 2.5 46.5146 2.5 43.5238V28.7619M25.7143 22.8571C12.8942 22.8571 2.5 25.4995 2.5 28.7619M2.5 28.7619C2.5 32.0243 12.8942 34.6667 25.7143 34.6667C25.7143 37.6574 35.1538 40.5714 46.2503 40.5714C57.3467 40.5714 66.3393 37.6574 66.3393 34.6667M66.3393 19.9048C66.3393 16.6424 57.3438 14 46.2503 14C35.1567 14 26.1612 16.6424 26.1612 19.9048M66.3393 19.9048C66.3393 23.1671 57.3438 25.8095 46.2503 25.8095C35.1567 25.8095 26.1612 23.1671 26.1612 19.9048M26.1612 19.9048V49.9187" stroke="black" stroke-width="4"/>
<path d="M76.9642 23.7821C79.0044 23.7821 81.0246 24.205 82.9095 25.0268C84.7943 25.8485 86.507 27.053 87.9496 28.5713C89.3922 30.0897 90.5366 31.8923 91.3173 33.8762C92.0981 35.8601 92.4999 37.9864 92.4999 40.1337C92.4999 42.281 92.0981 44.4073 91.3173 46.3912C90.5366 48.3751 89.3922 50.1777 87.9496 51.6961C86.507 53.2145 84.7943 54.4189 82.9095 55.2407C81.0246 56.0624 79.0044 56.4854 76.9642 56.4854C72.8439 56.4854 68.8923 54.7626 65.9788 51.6961C63.0653 48.6295 61.4285 44.4704 61.4285 40.1337C61.4285 35.797 63.0653 31.6379 65.9788 28.5713C68.8923 25.5048 72.8439 23.7821 76.9642 23.7821ZM71.7856 51.0348C72.7012 51.0348 73.5794 50.652 74.2268 49.9705C74.8743 49.2891 75.238 48.3648 75.238 47.4011C75.238 46.4374 74.8743 45.5131 74.2268 44.8317C73.5794 44.1502 72.7012 43.7674 71.7856 43.7674C70.87 43.7674 69.9919 44.1502 69.3444 44.8317C68.697 45.5131 68.3332 46.4374 68.3332 47.4011C68.3332 48.3648 68.697 49.2891 69.3444 49.9705C69.9919 50.652 70.87 51.0348 71.7856 51.0348ZM68.8407 31.6018C68.5171 31.9425 68.3353 32.4045 68.3353 32.8863C68.3353 33.3681 68.5171 33.8301 68.8407 34.1708L82.6365 48.6911C82.962 49.022 83.3981 49.2051 83.8507 49.201C84.3033 49.1969 84.7362 49.0058 85.0563 48.6689C85.3763 48.3321 85.5579 47.8764 85.5618 47.4C85.5657 46.9236 85.3917 46.4647 85.0773 46.122L71.2816 31.6018C70.9579 31.2612 70.5189 31.0698 70.0611 31.0698C69.6034 31.0698 69.1644 31.2612 68.8407 31.6018ZM78.6904 32.8663C78.6904 33.83 79.0541 34.7543 79.7016 35.4357C80.349 36.1172 81.2271 36.5 82.1428 36.5C83.0584 36.5 83.9365 36.1172 84.584 35.4357C85.2314 34.7543 85.5952 33.83 85.5952 32.8663C85.5952 31.9026 85.2314 30.9783 84.584 30.2969C83.9365 29.6154 83.0584 29.2326 82.1428 29.2326C81.2271 29.2326 80.349 29.6154 79.7016 30.2969C79.0541 30.9783 78.6904 31.9026 78.6904 32.8663Z" fill="black"/>
</svg>
