<svg width="90" height="90" viewBox="0 0 90 90" fill="none" xmlns="http://www.w3.org/2000/svg">
<path d="M63.75 48.75V18.75C63.75 16.7609 62.9598 14.8532 61.5533 13.4467C60.1468 12.0402 58.2391 11.25 56.25 11.25H48.75M48.75 11.25H26.25C24.2609 11.25 22.3532 12.0402 20.9467 13.4467C19.5402 14.8532 18.75 16.7609 18.75 18.75V63.75C18.75 65.7391 19.5402 67.6468 20.9467 69.0533C22.3532 70.4598 24.2609 71.25 26.25 71.25H52.5M48.75 11.25V50.625M33.75 26.25V37.5" stroke="black" stroke-width="4" stroke-linecap="round" stroke-linejoin="round"/>
<path d="M78.75 82.5V55.875C78.7492 52.4272 78.0693 49.0133 76.749 45.8283C75.4286 42.6433 73.4938 39.7496 71.055 37.3125L63.7425 30V54.7012C63.7425 58.0387 59.7037 59.715 57.3412 57.3525L52.485 52.5C50.61 50.625 46.1062 49.5 43.1025 52.5C40.0987 55.5 41.2275 60 43.1025 61.875L63.7387 82.5" stroke="black" stroke-width="4" stroke-linecap="round" stroke-linejoin="round"/>
</svg>
