<svg width="91" height="90" viewBox="0 0 91 90" fill="none" xmlns="http://www.w3.org/2000/svg">
<path d="M18.5 22.5C18.5 20.1131 19.4482 17.8239 21.136 16.136C22.8239 14.4482 25.1131 13.5 27.5 13.5H59C61.3869 13.5 63.6761 14.4482 65.364 16.136C67.0518 17.8239 68 20.1131 68 22.5V54H81.5V63C81.5 66.5804 80.0777 70.0142 77.5459 72.5459C75.0142 75.0777 71.5804 76.5 68 76.5H49.775C49.925 75.771 50 75.021 50 74.25V72H63.5V22.5C63.5 21.3065 63.0259 20.1619 62.182 19.318C61.3381 18.4741 60.1935 18 59 18H27.5C26.3065 18 25.1619 18.4741 24.318 19.318C23.4741 20.1619 23 21.3065 23 22.5V49.5H18.5V22.5ZM77 58.5H68V72C70.3869 72 72.6761 71.0518 74.364 69.364C76.0518 67.6761 77 65.3869 77 63V58.5ZM32 29.25C32 28.6533 32.2371 28.081 32.659 27.659C33.081 27.2371 33.6533 27 34.25 27H52.25C52.8467 27 53.419 27.2371 53.841 27.659C54.2629 28.081 54.5 28.6533 54.5 29.25C54.5 29.8467 54.2629 30.419 53.841 30.841C53.419 31.2629 52.8467 31.5 52.25 31.5H34.25C33.6533 31.5 33.081 31.2629 32.659 30.841C32.2371 30.419 32 29.8467 32 29.25ZM32 42.75C32 42.1533 32.2371 41.581 32.659 41.159C33.081 40.7371 33.6533 40.5 34.25 40.5H52.25C52.8467 40.5 53.419 40.7371 53.841 41.159C54.2629 41.581 54.5 42.1533 54.5 42.75C54.5 43.3467 54.2629 43.919 53.841 44.341C53.419 44.7629 52.8467 45 52.25 45H34.25C33.6533 45 33.081 44.7629 32.659 44.341C32.2371 43.919 32 43.3467 32 42.75ZM45.5 60.75C45.5 58.9598 44.7888 57.2429 43.523 55.977C42.2571 54.7112 40.5402 54 38.75 54H11.75C9.95979 54 8.2429 54.7112 6.97703 55.977C5.71116 57.2429 5 58.9598 5 60.75V74.25C5 76.0402 5.71116 77.7571 6.97703 79.023C8.2429 80.2888 9.95979 81 11.75 81H38.75C40.5402 81 42.2571 80.2888 43.523 79.023C44.7888 77.7571 45.5 76.0402 45.5 74.25V60.75ZM41 69.75V74.25C40.4033 74.25 39.831 74.4871 39.409 74.909C38.9871 75.331 38.75 75.9033 38.75 76.5H34.25C34.25 74.7098 34.9612 72.9929 36.227 71.727C37.4929 70.4612 39.2098 69.75 41 69.75ZM38.75 58.5C38.75 59.0967 38.9871 59.669 39.409 60.091C39.831 60.5129 40.4033 60.75 41 60.75V65.25C39.2098 65.25 37.4929 64.5388 36.227 63.273C34.9612 62.0071 34.25 60.2902 34.25 58.5H38.75ZM9.5 60.75C10.0967 60.75 10.669 60.5129 11.091 60.091C11.5129 59.669 11.75 59.0967 11.75 58.5H16.25C16.25 60.2902 15.5388 62.0071 14.273 63.273C13.0071 64.5388 11.2902 65.25 9.5 65.25V60.75ZM11.75 76.5C11.75 75.9033 11.5129 75.331 11.091 74.909C10.669 74.4871 10.0967 74.25 9.5 74.25V69.75C11.2902 69.75 13.0071 70.4612 14.273 71.727C15.5388 72.9929 16.25 74.7098 16.25 76.5H11.75ZM18.5 67.5C18.5 66.6136 18.6746 65.7358 19.0138 64.9169C19.353 64.0979 19.8502 63.3538 20.477 62.727C21.1038 62.1002 21.8479 61.603 22.6669 61.2638C23.4858 60.9246 24.3636 60.75 25.25 60.75C26.1364 60.75 27.0142 60.9246 27.8331 61.2638C28.6521 61.603 29.3962 62.1002 30.023 62.727C30.6498 63.3538 31.147 64.0979 31.4862 64.9169C31.8254 65.7358 32 66.6136 32 67.5C32 69.2902 31.2888 71.0071 30.023 72.273C28.7571 73.5388 27.0402 74.25 25.25 74.25C23.4598 74.25 21.7429 73.5388 20.477 72.273C19.2112 71.0071 18.5 69.2902 18.5 67.5Z" fill="black"/>
</svg>
