<?xml version="1.0" encoding="UTF-8"?>
<svg xmlns="http://www.w3.org/2000/svg"
     viewBox="0 0 755.90668 755.90668"
     version="1.1"
     xml:space="preserve">
  <g transform="matrix(1.3333333,0,0,-1.3333333,0,755.90667)">
    <!-- тут добавляем недостающую "<" перед id="g12" -->
    <g transform="scale(0.1)" id="g12">
      <path
              id="path14"
              style="fill:#231f20;fill-opacity:1;fill-rule:nonzero;stroke:none"
              d="m 2072.29,1667.65 c 0,-4.09 0.31,-7.98 0.94,-11.66 0.65,-3.65 1.74,-6.88 3.32,-9.67 1.58,-2.78 3.72,-4.93 6.4,-6.51 2.69,-1.57 6.03,-2.38 10.03,-2.38 6.75,0 11.59,2.45 14.54,7.32 2.95,4.89 4.4,12.52 4.4,22.9 0,4.09 -0.27,7.98 -0.86,11.63 -0.57,3.68 -1.6,6.9 -3.06,9.69 -1.49,2.77 -3.43,4.96 -5.85,6.51 -2.42,1.58 -5.54,2.36 -9.33,2.36 -7.26,0 -12.5,-2.43 -15.72,-7.31 -3.2,-4.87 -4.81,-12.51 -4.81,-22.88 z m 20.44,-41.21 c -5.65,0 -10.51,0.85 -14.54,2.59 -4.04,1.73 -7.33,4.2 -9.92,7.4 -2.56,3.2 -4.5,7.06 -5.82,11.63 -1.31,4.57 -2.11,9.58 -2.42,15.02 h -15.73 v -34.77 h -12.59 v 78.68 h 12.59 v -32.9 h 15.89 c 0.82,11.23 3.9,19.84 9.19,25.81 5.3,5.96 13.18,8.96 23.67,8.96 5.78,0 10.67,-0.97 14.71,-2.91 4.06,-1.94 7.35,-4.73 9.91,-8.34 2.57,-3.61 4.43,-7.98 5.59,-13.05 1.14,-5.09 1.74,-10.72 1.74,-16.91 0,-13.32 -2.65,-23.52 -7.95,-30.61 -5.3,-7.08 -13.4,-10.6 -24.32,-10.6"
      />
        <path
                id="path16"
                style="fill:#231f20;fill:#231f20;fill-rule:nonzero;stroke:none"
                d="m 2176.99,1697.84 c -5.34,0 -9.57,-1.37 -12.65,-4.16 -3.09,-2.79 -5.27,-7 -6.52,-12.66 v -39.01 c 1.88,-1.49 4.03,-2.61 6.45,-3.38 2.4,-0.8 5.59,-1.2 9.6,-1.2 7.21,0 12.98,2.7 17.2,8.12 4.25,5.39 6.38,13.35 6.38,23.81 0,4.32 -0.37,8.21 -1.09,11.75 -0.73,3.49 -1.93,6.49 -3.55,8.96 -1.62,2.47 -3.73,4.37 -6.29,5.73 -2.57,1.38 -5.76,2.04 -9.53,2.04 z m -31.77,9.15 h 8.67 l 2.35,-9.45 h 0.63 c 2.42,3.66 5.52,6.47 9.36,8.41 3.82,1.94 8.2,2.91 13.15,2.91 10.46,0 18.28,-3.09 23.42,-9.29 5.14,-6.19 7.73,-16.29 7.73,-30.35 0,-6.6 -0.87,-12.57 -2.61,-17.87 -1.74,-5.27 -4.16,-9.76 -7.31,-13.44 -3.16,-3.68 -6.96,-6.51 -11.41,-8.49 -4.45,-2 -9.41,-2.98 -14.87,-2.98 -3.89,0 -6.96,0.23 -9.19,0.69 -2.27,0.48 -4.71,1.3 -7.32,2.44 v -32.7 h -12.6 v 110.12"
        />
        <path
                id="path18"
                style="fill:#231f20;fill-opacity:1;fill-rule:nonzero;stroke:none"
                d="m 2279.81,1674.87 0.49,9.76 h -0.49 l -6.44,-10.06 -35.4,-46.26 h -7.25 v 78.68 h 12.6 v -48 l -0.48,-9.28 h 0.64 l 6.12,9.76 35.41,47.52 h 7.4 v -78.68 h -12.6 v 46.56"
        />
        <path
                id="path20"
                style="fill:#231f20;fill-opacity:1;fill-rule:nonzero;stroke:none"
                d="m 2364.36,1639.33 v 56.64 h -23.61 c -0.2,-4.41 -0.57,-9.22 -1.1,-14.4 -0.52,-5.19 -1.23,-10.38 -2.12,-15.57 -0.9,-5.21 -2.01,-10.1 -3.39,-14.72 -1.35,-4.61 -2.92,-8.59 -4.71,-11.95 z m 24.07,-30.99 h -8.51 l -2.35,19.97 h -59.15 l -2.36,-19.97 h -8.49 v 30.99 h 9.28 c 0.84,1.14 1.94,3.22 3.31,6.22 1.34,2.97 2.69,7.18 4,12.57 1.32,5.42 2.46,12.14 3.47,20.15 0.98,8.03 1.6,17.58 1.8,28.72 h 47.52 v -67.66 h 11.48 v -30.99"
        />
        <path
                id="path22"
                style="fill:#231f20;fill-opacity:1;fill-rule:nonzero;stroke:none"
                d="m 2454.08,1674.87 0.48,9.76 h -0.48 l -6.44,-10.06 -35.4,-46.26 h -7.25 v 78.68 h 12.6 v -48 l -0.48,-9.28 h 0.63 l 6.16,9.76 35.37,47.52 h 7.41 v -78.68 h -12.6 v 46.56"
        />
        <path
                id="path24"
                style="fill:#231f20;fill-opacity:1;fill-rule:nonzero;stroke:none"
                d="m 2498.77,1706.99 v -21.42 c 0,-2.81 0.16,-5.37 0.48,-7.62 0.29,-2.25 0.94,-4.2 1.87,-5.82 0.94,-1.63 2.31,-2.88 4.09,-3.78 1.78,-0.89 4.14,-1.34 7.08,-1.34 4.71,0 8.6,0.55 11.64,1.58 3.03,1.05 5.35,2.21 6.92,3.47 v 34.93 h 12.6 v -78.68 h -12.6 v 33.03 c -1.69,-1.02 -4.16,-2.2 -7.47,-3.45 -3.29,-1.26 -7.84,-1.9 -13.59,-1.9 -3.89,0 -7.3,0.44 -10.25,1.28 -2.92,0.83 -5.39,2.31 -7.38,4.39 -1.98,2.1 -3.5,4.9 -4.47,8.34 -1.01,3.48 -1.52,7.82 -1.52,13.05 v 23.94 h 12.6"
        />
        <path
                id="path26"
                style="fill:#231f20;fill-opacity:1;fill-rule:nonzero;stroke:none"
                d="m 2598.53,1697.84 c -6.2,0 -11.16,-1.63 -14.89,-4.87 -3.72,-3.24 -5.93,-8.8 -6.67,-16.66 h 39.02 c 0,7.95 -1.54,13.56 -4.57,16.73 -3.04,3.2 -7.34,4.8 -12.89,4.8 z m 27.06,-63.24 c -3.16,-2.52 -7.11,-4.5 -11.89,-5.96 -4.77,-1.47 -9.82,-2.2 -15.17,-2.2 -5.99,0 -11.18,0.97 -15.59,2.91 -4.41,1.93 -8.03,4.71 -10.86,8.34 -2.83,3.61 -4.93,7.93 -6.28,12.96 -1.38,5.05 -2.06,10.69 -2.06,17 0,13.42 3,23.65 8.98,30.67 5.97,7.03 14.52,10.54 25.65,10.54 3.56,0 7.13,-0.39 10.69,-1.17 3.57,-0.77 6.77,-2.29 9.6,-4.5 2.81,-2.2 5.12,-5.31 6.93,-9.35 1.75,-4.04 2.67,-9.37 2.67,-15.98 0,-3.44 -0.32,-7.28 -0.97,-11.47 h -50.47 c 0,-4.62 0.46,-8.7 1.41,-12.28 0.94,-3.56 2.4,-6.58 4.39,-9.04 1.99,-2.47 4.6,-4.36 7.79,-5.67 3.2,-1.3 7.11,-1.97 11.73,-1.97 3.56,0 7.13,0.65 10.69,1.9 3.57,1.26 6.24,2.72 8.02,4.41 l 4.74,-9.14"
        />
        <path
                id="path28"
                style="fill:#231f20;fill-opacity:1;fill-rule:nonzero;stroke:none"
                d="m 2702.72,1633.51 c -3.15,-2.32 -6.88,-4.07 -11.18,-5.26 -4.29,-1.22 -8.8,-1.81 -13.52,-1.81 -6.09,0 -11.22,0.97 -15.41,2.91 -4.2,1.93 -7.63,4.71 -10.31,8.34 -2.67,3.61 -4.61,7.95 -5.83,13.05 -1.21,5.07 -1.8,10.72 -1.8,16.91 0,13.32 2.93,23.52 8.8,30.61 5.88,7.08 14.33,10.6 25.35,10.6 5.02,0 9.3,-0.39 12.81,-1.17 3.5,-0.77 6.68,-1.92 9.51,-3.38 l -3.61,-10.86 c -2.42,1.35 -5.1,2.42 -8.02,3.22 -2.95,0.78 -6.1,1.17 -9.44,1.17 -14.9,0 -22.36,-10.05 -22.36,-30.19 0,-4 0.4,-7.79 1.2,-11.41 0.78,-3.61 2.1,-6.8 3.93,-9.6 1.83,-2.76 4.25,-5 7.25,-6.69 2.97,-1.67 6.67,-2.52 11.08,-2.52 3.77,0 7.15,0.58 10.15,1.74 2.99,1.15 5.41,2.47 7.31,3.93 l 4.09,-9.59"
        />
        <path
                id="path30"
                style="fill:#231f20;fill-opacity:1;fill-rule:nonzero;stroke:none"
                d="m 2739.9,1663.71 h -7.24 v -35.4 h -12.57 v 78.68 h 12.57 v -35.57 l 6.76,2.22 25.19,33.35 h 13.67 l -24.36,-31.64 -6.63,-5.19 8.18,-6.28 26.28,-35.57 h -15.59 l -26.26,35.4"
        />
        <path
                id="path32"
                style="fill:#231f20;fill-opacity:1;fill-rule:nonzero;stroke:none"
                d="m 2817.59,1638.08 c 2.93,0 5.55,0.38 7.86,1.18 2.3,0.78 4.3,1.79 5.99,2.98 1.67,1.21 3.06,2.56 4.16,4.01 1.09,1.47 1.92,2.88 2.44,4.26 v 13.05 c -1.46,0.09 -2.97,0.18 -4.48,0.22 -1.53,0.05 -3.01,0.1 -4.5,0.1 -3.25,0 -6.42,-0.19 -9.51,-0.55 -3.09,-0.37 -5.83,-1.05 -8.18,-2.06 -2.36,-0.98 -4.25,-2.35 -5.67,-4.09 -1.41,-1.74 -2.13,-3.91 -2.13,-6.53 0,-3.66 1.33,-6.68 3.96,-9.04 2.61,-2.35 5.97,-3.53 10.06,-3.53 z m -22.34,63.08 c 3.99,2.4 8.63,4.19 13.93,5.34 5.27,1.17 10.81,1.74 16.59,1.74 5.46,0 9.83,-0.74 13.14,-2.22 3.29,-1.46 5.81,-3.38 7.55,-5.73 1.73,-2.36 2.88,-4.96 3.44,-7.8 0.6,-2.81 0.87,-5.64 0.87,-8.47 0,-6.31 -0.15,-12.44 -0.46,-18.4 -0.32,-6 -0.48,-11.66 -0.48,-17.01 0,-3.88 0.16,-7.54 0.48,-11.02 0.31,-3.45 0.87,-6.65 1.72,-9.57 h -9.28 l -3.29,11 h -0.8 c -0.94,-1.47 -2.11,-2.91 -3.52,-4.33 -1.44,-1.42 -3.13,-2.68 -5.12,-3.77 -1.99,-1.12 -4.32,-2.03 -6.92,-2.76 -2.63,-0.74 -5.63,-1.1 -8.97,-1.1 -3.36,0 -6.48,0.52 -9.36,1.58 -2.89,1.05 -5.38,2.53 -7.48,4.48 -2.1,1.94 -3.75,4.27 -4.96,6.99 -1.21,2.74 -1.8,5.83 -1.8,9.3 0,4.6 0.93,8.45 2.83,11.54 1.89,3.11 4.53,5.56 7.96,7.4 3.4,1.84 7.49,3.16 12.24,3.94 4.78,0.8 10.06,1.19 15.82,1.19 1.46,0 2.91,0 4.32,0 1.44,0 2.88,-0.12 4.34,-0.32 0.32,3.15 0.46,5.96 0.46,8.5 0,5.76 -1.15,9.81 -3.45,12.11 -2.31,2.29 -6.5,3.45 -12.6,3.45 -1.78,0 -3.67,-0.14 -5.73,-0.41 -2.03,-0.25 -4.14,-0.64 -6.29,-1.11 -2.15,-0.51 -4.2,-1.08 -6.14,-1.79 -1.95,-0.71 -3.64,-1.49 -5.1,-2.35 l -3.94,9.6"
        />
        <path
                id="path34"
                style="fill:#231f20;fill-opacity:1;fill-rule:nonzero;stroke:none"
                d="m 2915.65,1696.26 c -1.36,0.55 -2.9,0.94 -4.57,1.19 -1.67,0.28 -3.15,0.39 -4.41,0.39 -6.72,0 -11.82,-1.19 -15.33,-3.61 -3.5,-2.4 -5.26,-6.24 -5.26,-11.47 0,-4.74 1.85,-8.37 5.58,-10.95 3.72,-2.56 8.64,-3.84 14.72,-3.84 0.08,0 0.25,0 0.46,0 0.2,0 0.63,0 1.26,0 0.63,0 1.52,0.02 2.69,0.07 1.14,0.04 2.76,0.14 4.86,0.24 z m 0,-35.38 -12.11,-1.89 -20.78,-30.68 h -15.26 l 18.88,26.91 6.31,5.83 c -5.46,0.82 -10.1,3.04 -13.94,6.6 -3.82,3.56 -5.74,8.39 -5.74,14.46 0,4.74 0.82,8.76 2.45,12.12 1.62,3.36 3.94,6.14 7.01,8.34 3.02,2.22 6.65,3.79 10.83,4.8 4.21,0.98 8.92,1.49 14.17,1.49 3.89,0 7.5,-0.25 10.86,-0.78 3.36,-0.53 6.65,-1.09 9.89,-1.74 v -78.03 h -12.57 v 32.57"
        />
        <path
                id="path36"
                style="fill:#231f20;fill-opacity:1;fill-rule:nonzero;stroke:none"
                d="m 3013.02,1663.71 h -7.23 v -35.4 h -12.59 v 78.68 h 12.59 v -35.57 l 6.75,2.22 25.18,33.35 h 13.7 l -24.39,-31.64 -6.61,-5.19 8.16,-6.28 26.28,-35.57 h -15.56 l -26.28,35.4"
        />
        <path
                id="path38"
                style="fill:#231f20;fill-opacity:1;fill-rule:nonzero;stroke:none"
                d="m 3074.81,1667.65 c 0,-4 0.4,-7.81 1.18,-11.49 0.79,-3.67 2.03,-6.86 3.7,-9.58 1.66,-2.75 3.87,-4.94 6.6,-6.63 2.71,-1.67 6.03,-2.52 9.92,-2.52 14.26,-0.08 21.39,9.97 21.39,30.22 0,4.09 -0.39,7.98 -1.16,11.63 -0.81,3.68 -2.04,6.89 -3.71,9.6 -1.69,2.74 -3.88,4.91 -6.61,6.53 -2.73,1.63 -6.05,2.43 -9.91,2.43 -14.27,0.11 -21.4,-9.97 -21.4,-30.19 z m -13.04,0 c 0,13.32 2.95,23.52 8.86,30.61 5.92,7.08 14.47,10.6 25.58,10.6 5.87,0 10.99,-0.97 15.33,-2.91 4.35,-1.94 7.95,-4.73 10.79,-8.34 2.82,-3.61 4.92,-7.98 6.28,-13.05 1.38,-5.09 2.04,-10.72 2.04,-16.91 0,-13.32 -2.94,-23.52 -8.87,-30.61 -5.94,-7.08 -14.47,-10.6 -25.57,-10.6 -5.88,0 -11,0.97 -15.34,2.91 -4.37,1.93 -7.95,4.71 -10.78,8.34 -2.83,3.61 -4.94,7.95 -6.29,13.05 -1.37,5.07 -2.03,10.72 -2.03,16.91"
        />
        <path
                id="path40"
                style="fill:#231f20;fill-opacity:1;fill-rule:nonzero;stroke:none"
                d="m 3215.71,1675.03 0.96,14.94 h -0.8 l -5.66,-12.11 -19.04,-30.83 h -4.41 l -19.82,30.83 -5.18,12.11 h -0.65 l 1.28,-14.78 v -46.88 h -11.65 v 78.68 h 12.43 l 22.04,-35.25 4.55,-9.12 h 0.31 l 4.71,9.44 20.61,34.93 h 12.6 v -78.68 h -12.28 v 46.72"
        />
        <path
                id="path42"
                style="fill:#231f20;fill-opacity:1;fill-rule:nonzero;stroke:none"
                d="m 3299.25,1695.97 h -34.77 v -67.66 h -12.59 v 78.68 h 59.96 v -78.68 h -12.6 v 67.66"
        />
        <path
                id="path44"
                style="fill:#231f20;fill-opacity:1;fill-rule:nonzero;stroke:none"
                d="m 3357.32,1638.08 c 2.95,0 5.55,0.38 7.87,1.18 2.3,0.78 4.31,1.79 5.98,2.98 1.67,1.21 3.07,2.56 4.18,4.01 1.11,1.47 1.91,2.88 2.42,4.26 v 13.05 c -1.45,0.09 -2.95,0.18 -4.47,0.22 -1.53,0.05 -3.02,0.1 -4.48,0.1 -3.27,0 -6.43,-0.19 -9.53,-0.55 -3.09,-0.37 -5.83,-1.05 -8.17,-2.06 -2.37,-0.98 -4.24,-2.35 -5.68,-4.09 -1.4,-1.74 -2.11,-3.91 -2.11,-6.53 0,-3.66 1.31,-6.68 3.94,-9.04 2.6,-2.35 5.96,-3.53 10.05,-3.53 z m -22.33,63.08 c 3.97,2.4 8.62,4.19 13.93,5.34 5.29,1.17 10.83,1.74 16.59,1.74 5.46,0 9.84,-0.74 13.13,-2.22 3.29,-1.46 5.83,-3.38 7.55,-5.73 1.73,-2.36 2.9,-4.96 3.47,-7.8 0.57,-2.81 0.87,-5.64 0.87,-8.47 0,-6.31 -0.16,-12.44 -0.48,-18.4 -0.32,-6 -0.48,-11.66 -0.48,-17.01 0,-3.88 0.16,-7.54 0.48,-11.02 0.32,-3.45 0.89,-6.65 1.74,-9.57 h -9.31 l -3.29,11 h -0.77 c -0.94,-1.47 -2.13,-2.91 -3.55,-4.33 -1.41,-1.42 -3.13,-2.68 -5.11,-3.77 -2,-1.12 -4.3,-2.03 -6.93,-2.76 -2.62,-0.74 -5.6,-1.1 -8.96,-1.1 -3.36,0 -6.49,0.52 -9.37,1.58 -2.88,1.05 -5.37,2.53 -7.48,4.48 -2.1,1.94 -3.74,4.27 -4.95,6.99 -1.19,2.74 -1.79,5.83 -1.79,9.3 0,4.6 0.94,8.45 2.82,11.54 1.89,3.11 4.52,5.56 7.94,7.4 3.41,1.84 7.5,3.16 12.28,3.94 4.76,0.8 10.04,1.19 15.79,1.19 1.49,0 2.93,0 4.35,0 1.41,0 2.86,-0.12 4.31,-0.32 0.33,3.15 0.48,5.96 0.48,8.5 0,5.76 -1.16,9.81 -3.45,12.11 -2.3,2.29 -6.51,3.45 -12.58,3.45 -1.79,0 -3.71,-0.14 -5.75,-0.41 -2.05,-0.25 -4.16,-0.64 -6.3,-1.11 -2.15,-0.51 -4.18,-1.08 -6.13,-1.79 -1.94,-0.71 -3.65,-1.49 -5.11,-2.35 l -3.94,9.6"
        />
        <path
                id="path46"
                style="fill:#231f20;fill-opacity:1;fill-rule:nonzero;stroke:none"
                d="m 3462.23,1663.08 h -35.57 v -34.77 h -12.59 v 78.68 h 12.59 v -32.9 h 35.57 v 32.9 h 12.56 v -78.68 h -12.56 v 34.77"
        />
        <path
                id="path48"
                style="fill:#231f20;fill-opacity:1;fill-rule:nonzero;stroke:none"
                d="m 3547.93,1674.87 0.46,9.76 h -0.46 l -6.45,-10.06 -35.4,-46.26 h -7.24 v 78.68 h 12.59 v -48 l -0.48,-9.28 h 0.64 l 6.12,9.76 35.41,47.52 h 7.4 v -78.68 h -12.59 v 46.56"
        />
        <path
                id="path50"
                style="fill:#231f20;fill-opacity:1;fill-rule:nonzero;stroke:none"
                d="m 3624.99,1696.26 c -1.35,0.55 -2.87,0.94 -4.54,1.19 -1.69,0.28 -3.16,0.39 -4.41,0.39 -6.72,0 -11.82,-1.19 -15.34,-3.61 -3.52,-2.4 -5.28,-6.24 -5.28,-11.47 0,-4.74 1.87,-8.37 5.58,-10.95 3.73,-2.56 8.64,-3.84 14.71,-3.84 0.12,0 0.26,0 0.48,0 0.21,0 0.63,0 1.26,0 0.62,0 1.51,0.02 2.68,0.07 1.14,0.04 2.79,0.14 4.86,0.24 z m 0,-35.38 -12.11,-1.89 -20.75,-30.68 h -15.26 l 18.87,26.91 6.28,5.83 c -5.43,0.82 -10.08,3.04 -13.91,6.6 -3.82,3.56 -5.74,8.39 -5.74,14.46 0,4.74 0.82,8.76 2.42,12.12 1.65,3.36 3.98,6.14 7.02,8.34 3.04,2.22 6.65,3.79 10.86,4.8 4.18,0.98 8.91,1.49 14.15,1.49 3.87,0 7.49,-0.25 10.85,-0.78 3.36,-0.53 6.68,-1.09 9.92,-1.74 v -78.03 h -12.6 v 32.57"
        />
        <path
                id="path52"
                style="fill:#231f20;fill-opacity:1;fill-rule:nonzero;stroke:none"
                d="m 2103.58,1905.77 c 3.21,0 5.99,1.22 8.39,3.61 2.41,2.38 3.62,5.19 3.62,8.37 v 83.87 c 0,3.21 -1.21,5.99 -3.62,8.39 -2.4,2.41 -5.18,3.59 -8.39,3.59 h -35.94 v -107.83 z m 12.01,279.76 v 55.72 c 0,3.18 -1.21,5.99 -3.62,8.39 -2.4,2.37 -5.18,3.59 -8.39,3.59 h -35.94 v -203.68 c 10.79,0 19.38,2.58 25.78,7.8 6.37,5.18 11.27,13.27 14.67,24.24 3.38,10.99 5.48,25.07 6.29,42.24 0.8,17.18 1.21,37.76 1.21,61.7 z m -83.88,103.62 h 76.68 c 11.97,0 22.17,-4.18 30.56,-12.56 8.38,-8.39 12.56,-18.58 12.56,-30.56 v -60.5 c 0,-21.57 -0.41,-42.14 -1.19,-61.7 -0.82,-19.57 -3.41,-36.93 -7.79,-52.11 -2.81,-10.4 -6.99,-19.59 -12.59,-27.57 6.79,-3.58 12.09,-8.77 15.88,-15.56 3.8,-6.81 5.69,-14.19 5.69,-22.17 v -93.45 c 0,-11.97 -4.18,-22.17 -12.56,-30.55 -8.39,-8.39 -18.59,-12.57 -30.56,-12.57 h -76.68 v 419.3"
        />
        <path
                id="path54"
                style="fill:#231f20;fill-opacity:1;fill-rule:nonzero;stroke:none"
                d="m 2272.09,2049.55 v 191.7 c 0,3.18 -1.18,5.99 -3.58,8.39 -2.41,2.37 -5.19,3.59 -8.39,3.59 h -23.98 c -3.2,0 -5.98,-1.22 -8.39,-3.59 -2.37,-2.4 -3.58,-5.21 -3.58,-8.39 v -191.7 z m -83.88,196.48 c 0,11.98 4.21,22.17 12.6,30.56 8.39,8.38 18.56,12.56 30.56,12.56 h 33.54 c 11.98,0 22.15,-4.18 30.54,-12.56 8.39,-8.39 12.57,-18.58 12.57,-30.56 v -376.18 h -35.93 v 143.75 h -47.92 v -143.75 h -35.96 v 376.18"
        />
        <path
                id="path56"
                style="fill:#231f20;fill-opacity:1;fill-rule:nonzero;stroke:none"
                d="m 2344.88,1869.85 v 419.3 h 35.93 v -383.38 h 35.96 v 383.38 h 35.92 v -383.38 h 35.95 v 383.38 h 35.95 v -419.3 h -179.71"
        />
        <path
                id="path58"
                style="fill:#231f20;fill-opacity:1;fill-rule:nonzero;stroke:none"
                d="m 2764.2,2241.25 v -323.5 c 0,-3.18 1.21,-5.99 3.58,-8.37 2.41,-2.39 5.2,-3.61 8.39,-3.61 h 23.98 c 3.18,0 5.98,1.22 8.39,3.61 2.4,2.38 3.59,5.19 3.59,8.37 v 323.5 c 0,3.18 -1.19,5.99 -3.59,8.39 -2.41,2.37 -5.21,3.59 -8.39,3.59 h -23.98 c -3.19,0 -5.98,-1.22 -8.39,-3.59 -2.37,-2.4 -3.58,-5.21 -3.58,-8.39 z m -71.88,47.9 v -239.6 h 35.95 v 196.48 c 0,11.98 4.18,22.17 12.57,30.56 8.39,8.38 18.58,12.56 30.56,12.56 h 33.55 c 11.95,0 22.17,-4.18 30.53,-12.56 8.39,-8.39 12.6,-18.58 12.6,-30.56 v -333.06 c 0,-11.97 -4.21,-22.17 -12.6,-30.55 -8.36,-8.39 -18.58,-12.57 -30.53,-12.57 h -33.55 c -11.98,0 -22.17,4.18 -30.56,12.57 -8.39,8.38 -12.57,18.58 -12.57,30.55 v 100.63 h -35.95 v -143.75 h -35.95 v 419.3 h 35.95"
        />
        <path
                id="path60"
                style="fill:#231f20;fill-opacity:1;fill-rule:nonzero;stroke:none"
                d="m 2968.99,2185.53 v 55.72 c 0,3.18 -1.18,5.99 -3.58,8.39 -2.4,2.37 -5.19,3.59 -8.39,3.59 h -35.95 v -203.68 c 10.8,0 19.36,2.58 25.76,7.8 6.37,5.18 11.27,13.27 14.67,24.24 3.41,10.99 5.51,25.07 6.31,42.24 0.8,17.18 1.18,37.76 1.18,61.7 z m -7.16,103.62 c 11.97,0 22.16,-4.18 30.55,-12.56 8.36,-8.39 12.57,-18.58 12.57,-30.56 v -64.08 c 0,-20.78 -0.41,-40.64 -1.19,-59.61 -0.82,-18.97 -3.41,-35.86 -7.79,-50.62 -11.98,-38.76 -36.96,-58.12 -74.9,-58.12 v -143.75 h -35.94 v 419.3 h 76.7"
        />
        <path
                id="path62"
                style="fill:#231f20;fill-opacity:1;fill-rule:nonzero;stroke:none"
                d="m 3041.65,2289.15 h 35.96 v -256.37 l 47.92,47.92 v 208.45 h 35.93 v -419.3 h -35.93 v 159.93 l -47.92,-47.92 v -112.01 h -35.96 v 419.3"
        />
        <path
                id="path64"
                style="fill:#231f20;fill-opacity:1;fill-rule:nonzero;stroke:none"
                d="m 3198.3,1912.97 v 333.06 c 0,11.98 4.2,22.17 12.57,30.56 8.41,8.38 18.58,12.56 30.58,12.56 h 33.53 c 11.99,0 22.17,-4.18 30.56,-12.56 8.38,-8.39 12.57,-18.58 12.57,-30.56 v -16.78 h -35.93 v 12 c 0,3.18 -1.21,5.99 -3.62,8.39 -2.37,2.37 -5.18,3.59 -8.38,3.59 h -23.96 c -3.19,0 -5.99,-1.22 -8.38,-3.59 -2.4,-2.4 -3.59,-5.21 -3.59,-8.39 v -323.5 c 0,-3.18 1.19,-5.99 3.59,-8.37 2.39,-2.39 5.19,-3.61 8.38,-3.61 h 23.96 c 3.2,0 6.01,1.22 8.38,3.61 2.41,2.38 3.62,5.19 3.62,8.37 v 12 h 35.93 v -16.78 c 0,-11.97 -4.19,-22.17 -12.57,-30.55 -8.39,-8.39 -18.57,-12.57 -30.56,-12.57 h -33.53 c -12,0 -22.17,4.18 -30.58,12.57 -8.37,8.38 -12.57,18.58 -12.57,30.55"
        />
        <path
                id="path66"
                style="fill:#231f20;fill-opacity:1;fill-rule:nonzero;stroke:none"
                d="m 3350.64,2253.23 v 35.92 h 119.81 v -35.92 h -41.93 v -383.38 h -35.95 v 383.38 h -41.93"
        />
        <path
                id="path68"
                style="fill:#231f20;fill-opacity:1;fill-rule:nonzero;stroke:none"
                d="m 3589.66,1905.77 c 3.18,0 5.99,1.22 8.39,3.61 2.4,2.38 3.59,5.19 3.59,8.37 v 83.87 c 0,3.21 -1.19,5.99 -3.59,8.39 -2.4,2.41 -5.21,3.59 -8.39,3.59 h -35.95 v -107.83 z m -35.95,383.38 v -239.6 h 40.75 c 11.98,0 22.15,-4.21 30.56,-12.57 8.36,-8.39 12.57,-18.58 12.57,-30.56 v -93.45 c 0,-11.97 -4.21,-22.17 -12.57,-30.55 -8.41,-8.39 -18.58,-12.57 -30.56,-12.57 h -76.68 v 383.38 h -16.77 v 35.92 h 52.7"
        />
        <path
                id="path70"
                style="fill:#dba668;fill-opacity:1;fill-rule:nonzero;stroke:none"
                d="m 3248.16,2996.74 c -78.81,0 -144.29,59.91 -155.36,137.68 h 15.54 295.2 c -11.09,-77.77 -76.55,-137.68 -155.38,-137.68 z m -413.5,-456.06 c -236.46,0 -431.06,181.87 -451.67,413.03 10.85,-2.1 22.03,-3.26 33.43,-3.52 22.11,-211.28 201.21,-376.52 418.24,-376.52 217.03,0 396.11,165.24 418.24,376.52 11.38,0.26 22.56,1.42 33.41,3.52 -20.62,-231.16 -215.22,-413.03 -451.65,-413.03 z m -568.9,593.74 h 310.75 c -11.08,-77.77 -76.53,-137.68 -155.36,-137.68 -78.85,0 -144.3,59.91 -155.39,137.68 z m 115.26,546.56 h 195.9 l -0.13,-33 h -162.77 v -466.76 h -33 z m 243.13,111.2 h 187.11 v -64.39 h -187.34 z m 425.6,-64.39 h -191.68 v 64.39 H 3050 Z m 44.72,-546.57 1.6,419.95 h 112.38 l -0.26,-419.95 h -99.85 z m -157.19,-46.8 h 108.44 c 9.88,-89.39 75.47,-161.78 160.49,-180 -16.3,-152.8 -124.93,-278.33 -268.93,-319.51 z m -79.21,0 h 32.4 v -509.78 c -10.65,-1.6 -21.49,-2.67 -32.4,-3.36 z m -78.4,0 h 31.59 v -513.14 c -10.7,0.67 -21.31,1.71 -31.75,3.26 z m -46.81,0 -0.15,-499.7 c -144.33,40.98 -253.31,166.65 -269.59,319.7 84.99,18.21 150.58,90.61 160.45,180 z m -157.87,46.8 h -114.16 v 419.95 h 115.78 z m 158.01,419.95 -0.14,-419.95 h -111.07 l 1.63,419.95 z m 78.26,46.81 h -187.67 l 0.14,33 h 187.53 z m 46.81,0 v 33 h 191.51 l -0.14,-33 z m 32.4,-466.76 h -32.4 v 419.95 h 32.4 z m -79.21,419.95 v -419.95 h -31.59 l 0.13,419.95 z m 233.07,-419.95 h -107.05 v 419.95 h 111.99 l -1.6,-419.95 z m 243.92,499.76 -0.22,-499.76 H 3255 l 0.27,466.76 h -159.02 l 0.14,33 z m 46.56,-499.76 0.28,546.57 h -238.52 l 0.41,111.2 h -519.46 l -0.41,-111.2 h -242.9 v -546.57 h -116.9 v -23.4 c 0,-83.14 48.23,-154.83 117.54,-188.06 12.83,-264.58 232.09,-475.89 499.81,-475.89 267.69,0 486.96,211.31 499.8,475.88 69.3,33.23 117.52,104.92 117.52,188.07 v 23.4 h -117.17"
        />
        <path
                id="path72"
                style="fill:#dba668;fill-opacity:1;fill-rule:nonzero;stroke:none"
                d="m 2892.5,3914.95 h -110.65 v 110.68 h 110.65 z m 46.81,157.48 h -204.27 v -204.28 h 204.27 v 204.28"
        />
    </g>
  </g>
</svg>
