<svg width="90" height="90" viewBox="0 0 90 90" fill="none" xmlns="http://www.w3.org/2000/svg">
<path d="M72.4875 78.495C73.7175 79.02 74.91 79.02 76.875 79.02C78.8775 79.02 80.07 79.02 81.225 78.495C82.875 77.82 84.15 76.5825 84.7875 74.97C85.3125 73.77 85.3125 72.645 85.3125 70.5825V59.0325C85.3125 54.42 85.3125 51.87 84.5625 49.32C83.7938 46.8 82.35 44.6325 79.9875 41.0888L79.8 40.8075L78.825 39.36L84.1875 35.3325C84.7843 34.885 85.1788 34.2187 85.2842 33.4803C85.3897 32.7418 85.1976 31.9918 84.75 31.395C84.3025 30.7983 83.6362 30.4038 82.8978 30.2983C82.1593 30.1928 81.4092 30.385 80.8125 30.8325L76.2 34.2938L73.9875 28.9575C71.1 21.9825 69.4875 18.12 65.925 15.72C62.3625 13.395 58.2 13.395 50.625 13.395H39.3713C31.7963 13.395 27.6338 13.395 24.075 15.7575C20.5725 18.0825 18.99 21.8513 16.1625 28.605L16.0125 28.9575L13.8 34.29L9.18751 30.8325C8.59077 30.385 7.84069 30.1928 7.10226 30.2983C6.36384 30.4038 5.69756 30.7983 5.25001 31.395C4.80246 31.9918 4.61029 32.7418 4.71578 33.4803C4.82127 34.2187 5.21577 34.885 5.81251 35.3325L11.175 39.3563L10.2 40.8075L10.0125 41.0888C7.65001 44.6325 6.20626 46.8 5.43751 49.32C4.68751 51.87 4.68751 54.42 4.68751 59.0325V70.5825C4.68751 72.645 4.68751 73.77 5.17501 74.9325C5.85001 76.5825 7.12501 77.8575 8.70001 78.495C9.93751 79.02 11.1 79.02 13.1213 79.02C15.1463 79.02 16.35 79.02 17.5088 78.495C19.1588 77.82 20.4338 76.5825 21.0713 74.97C21.5963 73.77 21.5963 72.645 21.5963 70.5825C21.5963 69.6075 21.5963 68.595 21.6713 68.3325C21.7838 68.1075 21.9338 67.9575 22.1963 67.845C22.4588 67.77 23.4338 67.77 24.4088 67.77H65.6588C66.6338 67.77 67.6088 67.77 67.9088 67.845C68.1338 67.9575 68.2838 68.1075 68.3963 68.3325C68.4713 68.595 68.4713 69.6075 68.4713 70.5825C68.4713 72.645 68.4713 73.77 68.9588 74.9325C69.6338 76.5825 70.9125 77.8575 72.4875 78.495ZM16.2563 41.9288L20.925 43.095C21.7125 43.2825 22.575 43.395 23.4375 43.395H66.5625C67.425 43.395 68.2875 43.2825 69.075 43.095L73.7775 41.9213L75.15 43.9575C77.5125 47.52 78.675 49.2825 79.2 50.97C79.725 52.695 79.725 54.8325 79.725 59.0325V70.5825C79.725 71.5575 79.725 72.57 79.65 72.8325C79.5375 73.0575 79.3875 73.2075 79.125 73.32C78.6375 73.47 75.2625 73.5075 74.6625 73.32C74.448 73.2196 74.2755 73.047 74.175 72.8325C74.1 72.57 74.1 71.5575 74.1 70.5825C74.1 68.52 74.1 67.395 73.6125 66.2325C73.2924 65.4336 72.8156 64.7067 72.2102 64.0949C71.6048 63.4831 70.8831 62.9986 70.0875 62.67C68.85 62.145 67.65 62.145 65.6663 62.145H24.4125C22.3875 62.145 21.1875 62.145 20.0288 62.67C18.3788 63.345 17.1038 64.5825 16.4663 66.195C15.9413 67.395 15.9413 68.52 15.9413 70.5825C15.9413 71.5575 15.9413 72.57 15.8663 72.8325C15.7538 73.0575 15.6038 73.2075 15.3413 73.32C14.8538 73.47 11.4788 73.5075 10.8788 73.32C10.6642 73.2196 10.4917 73.047 10.3913 72.8325C10.3163 72.57 10.3163 71.5575 10.3163 70.5825V59.0325C10.3163 54.795 10.3163 52.695 10.8413 50.97C11.3663 49.2825 12.5288 47.52 14.8913 43.9575L16.2563 41.9288ZM18.8813 36.7763L21.225 31.1325C24 24.5325 25.2 21.8325 27.225 20.445C29.3625 19.02 32.7 19.02 39.405 19.02H50.6625C57.3375 19.02 60.7125 19.02 62.8125 20.4075C64.875 21.795 66.075 24.5325 68.8125 31.1325L71.1525 36.765L67.6875 37.62C67.3125 37.7325 66.9375 37.77 66.5625 37.77H23.4C23.025 37.77 22.65 37.7325 22.275 37.62L18.8813 36.7763ZM67.5375 57.495C65.475 57.495 63.7875 55.8075 63.7875 53.745C63.7875 51.6825 65.475 49.995 67.5375 49.995C69.6 49.995 71.2875 51.645 71.2875 53.745C71.2875 55.845 69.6 57.5325 67.5375 57.5325V57.495ZM18.7875 53.745C18.7875 55.8075 20.475 57.495 22.5375 57.495V57.5325C24.6 57.5325 26.2875 55.845 26.2875 53.745C26.2875 51.645 24.6 49.995 22.5375 49.995C20.475 49.995 18.7875 51.6825 18.7875 53.745Z" fill="black"/>
</svg>
